<svg width="49" height="48" viewBox="0 0 49 48" fill="none" xmlns="http://www.w3.org/2000/svg">
<path d="M0.0273438 16.1C0.0273438 10.4051 0.0273438 7.55764 1.15321 5.39026C2.10196 3.56382 3.59117 2.07462 5.4176 1.12587C7.58498 0 10.4324 0 16.1273 0H31.9273C37.6222 0 40.4697 0 42.6371 1.12587C44.4635 2.07462 45.9527 3.56382 46.9015 5.39026C48.0273 7.55764 48.0273 10.4051 48.0273 16.1V31.9C48.0273 37.5949 48.0273 40.4424 46.9015 42.6097C45.9527 44.4362 44.4635 45.9254 42.6371 46.8741C40.4697 48 37.6222 48 31.9273 48H16.1273C10.4324 48 7.58498 48 5.4176 46.8741C3.59117 45.9254 2.10196 44.4362 1.15321 42.6097C0.0273438 40.4424 0.0273438 37.5949 0.0273438 31.9V16.1Z" fill="#231F20"/>
<path fill-rule="evenodd" clip-rule="evenodd" d="M26.9626 17.8299C26.6097 18.3568 26.4215 18.9767 26.4215 19.6106L26.4027 19.6035C26.4015 20.0269 26.4839 20.4457 26.6462 20.8373C26.8085 21.2278 27.0461 21.583 27.346 21.8817C27.6459 22.1805 28.0023 22.4169 28.3939 22.578C28.7856 22.738 29.2043 22.8203 29.6277 22.8168C30.2628 22.8168 30.8826 22.6286 31.4095 22.2769C31.9365 21.9241 32.3481 21.4242 32.5904 20.8373C32.8327 20.2516 32.8962 19.6071 32.7727 18.9849C32.6492 18.3639 32.3434 17.7923 31.8953 17.343C31.4472 16.8949 30.8756 16.5903 30.2534 16.4656C29.6312 16.3421 28.9867 16.4056 28.401 16.6479C27.8153 16.8914 27.3142 17.3018 26.9626 17.8299ZM33.1726 17.2371C33.6419 17.9393 33.8912 18.7661 33.89 19.6106C33.8889 20.742 33.4384 21.8253 32.6386 22.625C31.8388 23.4248 30.7556 23.8753 29.6242 23.8765C28.7797 23.8776 27.9529 23.6283 27.2507 23.159C26.5474 22.6897 25.9993 22.0229 25.6759 21.2431C25.3524 20.4621 25.2677 19.6035 25.4324 18.7744C25.5971 17.9464 26.004 17.1854 26.6015 16.5879C27.199 15.9904 27.9599 15.5835 28.7879 15.4188C29.6171 15.2542 30.4757 15.3388 31.2567 15.6623C32.0364 15.9869 32.7033 16.5338 33.1726 17.2371ZM17.7169 32.7787L15.6269 31.9142C15.9303 32.5446 16.4102 33.0739 17.0089 33.4373C17.6075 33.7996 18.2979 33.9807 18.9977 33.9572C19.6975 33.9337 20.375 33.7078 20.9478 33.3056C21.5206 32.9045 21.9651 32.3447 22.2251 31.6943C22.485 31.045 22.5508 30.3335 22.4144 29.6478C22.2768 28.9609 21.9428 28.3293 21.4535 27.8295C20.9642 27.3296 20.3385 26.9838 19.6552 26.8321C18.9718 26.6816 18.2603 26.7333 17.6052 26.9803L19.7599 27.8706C20.4103 28.1412 20.9266 28.6598 21.1948 29.3114C21.4641 29.963 21.4629 30.6946 21.1912 31.3461C20.9207 31.9965 20.402 32.5129 19.7505 32.7822C19.0989 33.0504 18.3673 33.0492 17.7169 32.7787ZM23.9987 7C19.7293 7.00118 15.6175 8.60896 12.4795 11.5046C9.34277 14.3991 7.41037 18.3698 7.06812 22.625L16.1726 26.3922C16.9689 25.8453 17.9133 25.5536 18.8801 25.5548H19.1483L23.1965 19.6882V19.6035C23.2001 18.3368 23.58 17.0995 24.2868 16.0492C24.9949 14.9978 25.9969 14.1803 27.1684 13.6981C28.3398 13.2171 29.6277 13.0936 30.8697 13.3429C32.1117 13.5935 33.2514 14.205 34.1453 15.1024C35.0391 15.9998 35.6472 17.1419 35.893 18.3839C36.1376 19.6271 36.0094 20.9138 35.5237 22.084C35.0379 23.2543 34.217 24.2528 33.1632 24.9562C32.1094 25.6595 30.8721 26.0347 29.6054 26.0347H29.4595L23.6988 30.1559V30.3817C23.7023 31.5767 23.2601 32.7293 22.4591 33.6161C21.6593 34.5029 20.5561 35.0592 19.3682 35.178C18.1791 35.2956 16.9889 34.9675 16.0291 34.2571C15.0694 33.5455 14.4084 32.5023 14.1755 31.3308L7.66677 28.6422C8.52889 31.6837 10.2214 34.4241 12.5548 36.5553C14.8883 38.6864 17.771 40.1249 20.8772 40.7082C23.9834 41.2916 27.1907 40.9964 30.1381 39.8567C33.0867 38.717 35.6578 36.7776 37.5631 34.2559C39.4697 31.7343 40.634 28.7316 40.9269 25.5854C41.2198 22.438 40.6293 19.2719 39.2203 16.4421C37.8125 13.6123 35.6425 11.2318 32.9562 9.56869C30.2687 7.90445 27.1707 7.02352 24.0104 7.02352L23.9987 7Z" fill="white"/>
</svg>
